<?xml version="1.0" standalone="no"?>
<!DOCTYPE svg PUBLIC "-//W3C//DTD SVG 20010904//EN"
 "http://www.w3.org/TR/2001/REC-SVG-20010904/DTD/svg10.dtd">
<svg version="1.0" xmlns="http://www.w3.org/2000/svg"
 width="348.000000pt" height="348.000000pt" viewBox="0 0 348.000000 348.000000"
 preserveAspectRatio="xMidYMid meet">
<metadata>
Created by potrace 1.15, written by Peter Selinger 2001-2017
</metadata>
<g transform="translate(0.000000,348.000000) scale(0.100000,-0.100000)"
fill="#000000" stroke="none">
<path d="M40 1735 l0 -1705 1695 0 1695 0 0 1705 0 1705 -1695 0 -1695 0 0
-1705z m3360 0 l0 -1675 -1665 0 -1665 0 0 1675 0 1675 1665 0 1665 0 0 -1675z"/>
<path d="M920 2950 l0 -380 655 0 655 0 0 380 0 380 -655 0 -655 0 0 -380z
m390 0 l0 -350 -175 0 -175 0 0 350 0 350 175 0 175 0 0 -350z m370 0 l0 -350
-165 0 -165 0 0 350 0 350 165 0 165 0 0 -350z m500 0 l0 -350 -230 0 -230 0
0 350 0 350 230 0 230 0 0 -350z"/>
<path d="M2901 3218 c-51 -27 -91 -91 -91 -142 0 -51 40 -118 85 -144 32 -18
51 -22 98 -19 96 6 157 69 157 162 0 128 -134 205 -249 143z m147 -27 c127
-65 74 -251 -71 -251 -73 0 -146 84 -133 154 18 94 118 141 204 97z"/>
<path d="M170 2300 l0 -200 343 2 342 3 3 198 2 197 -345 0 -345 0 0 -200z
m640 5 l0 -155 -295 0 -295 0 0 155 0 155 295 0 295 0 0 -155z"/>
<path d="M980 2300 l0 -200 340 0 340 0 5 23 c3 12 4 101 3 197 l-3 175 -342
3 -343 2 0 -200z m640 5 l0 -155 -300 0 -300 0 0 155 0 155 300 0 300 0 0
-155z"/>
<path d="M1720 2300 l0 -200 343 2 342 3 3 198 2 197 -345 0 -345 0 0 -200z
m640 5 l0 -155 -295 0 -295 0 0 155 0 155 295 0 295 0 0 -155z"/>
<path d="M2530 2300 l0 -200 340 0 340 0 5 23 c3 12 4 101 3 197 l-3 175 -342
3 -343 2 0 -200z m640 5 l0 -155 -300 0 -300 0 0 155 0 155 300 0 300 0 0
-155z"/>
<path d="M520 1750 l0 -240 980 0 980 0 0 240 0 240 -980 0 -980 0 0 -240z
m580 101 c0 -5 -12 -11 -27 -13 l-28 -3 -3 -92 -3 -93 31 0 c20 0 30 -5 30
-15 0 -12 -13 -15 -55 -15 l-55 0 0 120 0 120 55 0 c30 0 55 -4 55 -9z m190
-16 c0 -16 -6 -25 -15 -25 -8 0 -15 7 -15 16 0 9 -6 14 -12 12 -9 -3 -14 -34
-16 -96 -2 -77 0 -92 13 -92 8 0 15 -7 15 -15 0 -12 -13 -15 -55 -15 -42 0
-55 3 -55 15 0 8 7 15 15 15 12 0 15 17 15 95 0 59 -4 95 -10 95 -6 0 -13 -7
-16 -15 -10 -25 -34 -17 -34 10 0 25 1 25 85 25 84 0 85 0 85 -25z m220 0 c0
-27 -24 -35 -34 -10 -3 9 -19 15 -41 15 -34 0 -35 -1 -35 -40 0 -36 3 -40 25
-40 14 0 25 5 25 10 0 6 7 10 15 10 11 0 15 -11 15 -40 0 -29 -4 -40 -15 -40
-8 0 -15 7 -15 15 0 9 -9 15 -25 15 -22 0 -25 -4 -25 -40 l0 -40 40 0 c22 0
40 5 40 10 0 6 7 10 15 10 9 0 15 -9 15 -25 l0 -25 -100 0 c-82 0 -100 3 -100
15 0 8 7 15 15 15 12 0 15 17 15 95 0 78 -3 95 -15 95 -8 0 -15 5 -15 10 0 6
40 10 100 10 l100 0 0 -25z m80 -15 c0 -36 3 -40 25 -40 23 0 25 4 25 40 0 36
3 40 25 40 23 0 25 -4 25 -40 0 -22 -4 -40 -10 -40 -5 0 -10 -7 -10 -15 0 -8
-7 -15 -15 -15 -8 0 -15 -4 -15 -10 0 -5 7 -10 15 -10 8 0 15 -7 15 -15 0 -8
5 -15 10 -15 6 0 10 -18 10 -40 0 -36 -2 -40 -25 -40 -22 0 -25 4 -25 40 0 36
-2 40 -25 40 -22 0 -25 -4 -25 -40 0 -38 -2 -40 -30 -40 -28 0 -30 2 -30 40 0
29 4 40 15 40 8 0 15 7 15 15 0 8 7 15 15 15 8 0 15 5 15 10 0 6 -7 10 -15 10
-8 0 -15 7 -15 15 0 8 -7 15 -15 15 -11 0 -15 11 -15 40 0 38 2 40 30 40 28 0
30 -2 30 -40z m290 15 c0 -27 -15 -34 -24 -10 -3 8 -10 15 -16 15 -6 0 -10
-36 -10 -95 0 -78 3 -95 15 -95 8 0 15 -7 15 -15 0 -12 -13 -15 -55 -15 -42 0
-55 3 -55 15 0 8 5 15 10 15 6 0 10 38 10 95 0 57 -4 95 -10 95 -5 0 -10 -7
-10 -15 0 -8 -7 -15 -15 -15 -9 0 -15 9 -15 25 0 25 1 25 80 25 79 0 80 0 80
-25z m140 -95 l0 -120 -55 0 c-42 0 -55 3 -55 15 0 9 9 15 25 15 25 0 25 0 25
95 0 95 0 95 -25 95 -14 0 -25 5 -25 10 0 6 25 10 55 10 l55 0 0 -120z"/>
<path d="M2819 1831 c-104 -33 -176 -98 -222 -199 -33 -73 -31 -207 5 -284 34
-72 98 -137 174 -174 53 -26 69 -29 154 -29 85 0 101 3 154 29 76 37 140 102
174 174 36 77 38 211 4 285 -77 171 -265 255 -443 198z m262 -63 c229 -125
220 -442 -16 -558 -41 -20 -65 -25 -135 -25 -100 0 -160 24 -226 90 -203 204
-48 546 242 532 59 -3 83 -10 135 -39z"/>
<path d="M900 1190 l0 -230 370 0 370 0 0 230 0 230 -370 0 -370 0 0 -230z
m700 0 l0 -200 -330 0 -330 0 0 200 0 200 330 0 330 0 0 -200z"/>
<path d="M1780 1190 l0 -230 370 0 370 0 0 230 0 230 -370 0 -370 0 0 -230z
m700 0 l0 -200 -330 0 -330 0 0 200 0 200 330 0 330 0 0 -200z"/>
<path d="M180 1135 l0 -135 280 0 280 0 0 135 0 135 -280 0 -280 0 0 -135z
m530 0 l0 -105 -250 0 -250 0 0 105 0 105 250 0 250 0 0 -105z"/>
<path d="M220 510 l0 -350 260 0 260 0 0 350 0 350 -260 0 -260 0 0 -350z
m490 0 l0 -330 -225 0 -225 0 0 330 0 330 225 0 225 0 0 -330z"/>
<path d="M850 510 l0 -350 255 0 255 0 0 350 0 350 -255 0 -255 0 0 -350z
m480 0 l0 -330 -225 0 -225 0 0 330 0 330 225 0 225 0 0 -330z"/>
<path d="M1460 510 l0 -350 260 0 260 0 0 350 0 350 -260 0 -260 0 0 -350z
m490 0 l0 -330 -225 0 -225 0 0 330 0 330 225 0 225 0 0 -330z"/>
<path d="M2070 510 l0 -350 260 0 260 0 0 350 0 350 -260 0 -260 0 0 -350z
m480 0 l0 -330 -220 0 -220 0 0 330 0 330 220 0 220 0 0 -330z"/>
<path d="M2690 510 l0 -350 260 0 260 0 0 350 0 350 -260 0 -260 0 0 -350z
m480 0 l0 -330 -225 0 -225 0 0 330 0 330 225 0 225 0 0 -330z"/>
</g>
</svg>
